# xmcd CD database file
#
# Track frame offsets:
#	150
#	64270
#	158833
#	215986
#
# Disc length: 3614 seconds
#
# Revision: 2
# Processed by: cddbd v1.5.2PL0 Copyright (c) Steve Scherf et al.
# Submitted via: CDex 1.51
#
DISCID=3a0e1c04
DTITLE=Haruki Murakami - Mister Aufziehvogel CD15
DYEAR=2004
DGENRE=Hörbuch
TTITLE0=Was in der Nacht geschah
TTITLE1=Neue Schuhe kaufen
TTITLE2=Heimkehr
TTITLE3=Ein Ort, den Sie erraten können, wenn Sie wirklich ganz, ganz scharf nachdenken
EXTD=YEAR: 2004
EXTT0=
EXTT1=
EXTT2=
EXTT3=
PLAYORDER=
